# xmcd CD database file
#
# Track frame offsets:
#	150
#	15655
#	29422
#	43982
#	57565
#	72999
#	86986
#	100947
#	115394
#	129878
#	145009
#	158203
#	173444
#	188947
#
# Disc length: 2710 seconds
#
# Revision: 2
# Processed by: cddbd v1.5.1PL2 Copyright (c) Steve Scherf et al.
# Submitted via: CDex 1.51
#
DISCID=c30a940e
DTITLE=Armstrong, Louis - Satchmo - Disc 2
DYEAR=1900
DGENRE=Jazz
TTITLE0=The Last Time
TTITLE1=Struttin With Some Barbecue
TTITLE2=Once in a While
TTITLE3=Hotter Than That
TTITLE4=Savoy Blues
TTITLE5=Fireworks
TTITLE6=Skip the Gutter
TTITLE7=A Monday Date
TTITLE8=West End Blues
TTITLE9=Sugar Foot Strut
TTITLE10=Two Deuces
TTITLE11=Squeeze Me
TTITLE12=Chicago Breakdown
TTITLE13=Symphonic Raps
EXTD=
EXTT0=
EXTT1=
EXTT2=
EXTT3=
EXTT4=
EXTT5=
EXTT6=
EXTT7=
EXTT8=
EXTT9=
EXTT10=
EXTT11=
EXTT12=
EXTT13=
PLAYORDER=
